<svg width="318" height="121" viewBox="0 0 318 121" fill="none" xmlns="http://www.w3.org/2000/svg">
<path d="M3.5 25.1C3.5 24.5 3.41667 24.05 3.25 23.75C3.08333 23.4167 2.85 23.1 2.55 22.8C2.31667 22.5333 2.16667 22.3333 2.1 22.2C2.03333 22.0667 2.05 21.8667 2.15 21.6C2.35 21 2.7 20.4333 3.2 19.9C3.7 19.3667 4.23333 19.1 4.8 19.1C5.4 19.1 5.95 19.4 6.45 20H24.1V24.4H8.6V34.55H19.9V38.75H8.6V50.6H24.55V55H3.5V25.1ZM47.8102 55.5C47.2435 55.5 46.7602 55.3667 46.3602 55.1C45.9602 54.8667 45.6768 54.5167 45.5102 54.05L37.7102 30.05L35.4102 55.05H30.2602L33.6602 22.75L33.3602 22.3C33.2268 22.0333 33.1602 21.7167 33.1602 21.35C33.1602 20.75 33.3768 20.2333 33.8102 19.8C34.2768 19.3333 34.9435 19.1 35.8102 19.1C36.8768 19.1 37.6602 19.3167 38.1602 19.75C38.6935 20.1833 39.1102 20.8667 39.4102 21.8L47.6602 47.35L56.0102 21.8C56.3435 20.8667 56.7602 20.1833 57.2602 19.75C57.7602 19.3167 58.5268 19.1 59.5602 19.1C60.4602 19.1 61.1268 19.3333 61.5602 19.8C62.0268 20.2333 62.2602 20.7667 62.2602 21.4C62.2602 21.7667 62.1935 22.0667 62.0602 22.3L61.7602 22.75L65.1602 55.05H60.0102L57.7102 30.05L50.4602 52.3L50.6102 52.8C50.6768 52.9667 50.7102 53.2 50.7102 53.5C50.7102 54.1 50.4268 54.5833 49.8602 54.95C49.3268 55.3167 48.6435 55.5 47.8102 55.5ZM72.1215 24.6C72.1215 24.1667 72.0548 23.8333 71.9215 23.6C71.7882 23.3333 71.6048 23.0833 71.3715 22.85C71.1715 22.6167 71.0215 22.4167 70.9215 22.25C70.8548 22.05 70.8382 21.7833 70.8715 21.45C71.0382 20.85 71.3548 20.3167 71.8215 19.85C72.3215 19.35 72.9048 19.1 73.5715 19.1C74.2382 19.1 74.9048 19.4 75.5715 20H82.5215C86.9215 20 90.3215 20.9667 92.7215 22.9C95.1548 24.8333 96.3715 27.6833 96.3715 31.45C96.3715 35.1833 95.1715 38.0333 92.7715 40C90.4048 41.9333 87.0882 42.9 82.8215 42.9H77.2215V55H72.1215V24.6ZM82.6715 38.55C85.4382 38.55 87.5382 37.9667 88.9715 36.8C90.4382 35.6 91.1715 33.8167 91.1715 31.45C91.1715 29.15 90.4548 27.4 89.0215 26.2C87.5882 25 85.4715 24.4 82.6715 24.4H77.2215V38.55H82.6715ZM115.539 55.5C110.806 55.5 107.156 53.9 104.589 50.7C102.056 47.4667 100.789 43.0667 100.789 37.5C100.789 31.9333 102.056 27.55 104.589 24.35C107.156 21.1167 110.806 19.5 115.539 19.5C118.673 19.5 121.339 20.2333 123.539 21.7C125.773 23.1667 127.456 25.2667 128.589 28C129.723 30.7 130.289 33.8667 130.289 37.5C130.289 41.1333 129.723 44.3167 128.589 47.05C127.456 49.75 125.773 51.8333 123.539 53.3C121.339 54.7667 118.673 55.5 115.539 55.5ZM115.539 51.25C118.739 51.25 121.123 50.0167 122.689 47.55C124.289 45.0833 125.089 41.7333 125.089 37.5C125.089 33.2667 124.289 29.9167 122.689 27.45C121.123 24.9833 118.739 23.75 115.539 23.75C112.339 23.75 109.939 24.9833 108.339 27.45C106.773 29.8833 105.989 33.2333 105.989 37.5C105.989 41.7667 106.773 45.1333 108.339 47.6C109.939 50.0333 112.339 51.25 115.539 51.25ZM141.13 55.25C139.93 54.9167 139.33 54.2667 139.33 53.3C139.33 53.0333 139.38 52.75 139.48 52.45L139.73 51.95L133.93 20H139.03L143.23 45.6L150.43 21C150.73 20 151.48 19.5 152.68 19.5C153.68 19.5 154.447 19.6833 154.98 20.05C155.513 20.3833 155.78 20.8167 155.78 21.35C155.78 21.45 155.747 21.6333 155.68 21.9L155.53 22.4L162.23 45.55L166.38 20H171.53L165.63 51.95L165.83 52.45C165.93 52.75 165.98 53.0333 165.98 53.3C165.98 54.2667 165.38 54.9167 164.18 55.25C163.58 55.4167 163.113 55.5 162.78 55.5C162.08 55.5 161.513 55.2833 161.08 54.85C160.647 54.4167 160.297 53.7333 160.03 52.8L152.73 27.7L145.28 52.8C145.013 53.7333 144.663 54.4167 144.23 54.85C143.797 55.2833 143.247 55.5 142.58 55.5C142.213 55.5 141.73 55.4167 141.13 55.25ZM178.627 25.1C178.627 24.5 178.544 24.05 178.377 23.75C178.21 23.4167 177.977 23.1 177.677 22.8C177.444 22.5333 177.294 22.3333 177.227 22.2C177.16 22.0667 177.177 21.8667 177.277 21.6C177.477 21 177.827 20.4333 178.327 19.9C178.827 19.3667 179.36 19.1 179.927 19.1C180.527 19.1 181.077 19.4 181.577 20H199.227V24.4H183.727V34.55H195.027V38.75H183.727V50.6H199.677V55H178.627V25.1ZM206.687 24.6C206.687 24.1667 206.62 23.8333 206.487 23.6C206.354 23.3333 206.17 23.0833 205.937 22.85C205.737 22.65 205.587 22.4833 205.487 22.35C205.42 22.2167 205.387 22.0333 205.387 21.8C205.387 21.1667 205.654 20.5667 206.187 20C206.754 19.4 207.404 19.1 208.137 19.1C208.804 19.1 209.47 19.4 210.137 20H217.087C221.52 20 224.92 20.8833 227.287 22.65C229.654 24.4167 230.837 27.1167 230.837 30.75C230.837 33.8167 229.954 36.2167 228.187 37.95C226.42 39.6833 224.004 40.7 220.937 41L230.087 55H224.237L215.387 41.4H211.787V55H206.687V24.6ZM217.237 37.05C220.104 37.05 222.22 36.5667 223.587 35.6C224.954 34.6 225.637 32.9833 225.637 30.75C225.637 28.55 224.937 26.95 223.537 25.95C222.17 24.9167 220.054 24.4 217.187 24.4H211.787V37.05H217.237ZM239.127 20H244.227V55H239.127V20ZM253.677 24.4C253.677 24.0333 253.61 23.7333 253.477 23.5C253.377 23.2667 253.227 23.0333 253.027 22.8C252.727 22.4333 252.577 22.1 252.577 21.8C252.577 21.6333 252.593 21.4833 252.627 21.35C252.827 20.6833 253.193 20.15 253.727 19.75C254.26 19.3167 254.86 19.1 255.527 19.1C256.46 19.1 257.21 19.5167 257.777 20.35L273.527 45.75V20H278.627V55H274.277L258.777 30.1V55H253.677V24.4ZM300.835 55.5C297.535 55.5 294.685 54.7667 292.285 53.3C289.918 51.8333 288.101 49.75 286.835 47.05C285.601 44.3167 284.985 41.1167 284.985 37.45C284.985 33.8167 285.618 30.65 286.885 27.95C288.151 25.25 289.968 23.1667 292.335 21.7C294.735 20.2333 297.568 19.5 300.835 19.5C303.101 19.5 305.135 19.8667 306.935 20.6C308.735 21.3 310.251 22.3167 311.485 23.65L309.385 27.25C308.285 26.05 307.068 25.1667 305.735 24.6C304.435 24.0333 302.801 23.75 300.835 23.75C297.468 23.75 294.851 24.9667 292.985 27.4C291.118 29.8333 290.185 33.1833 290.185 37.45C290.185 41.75 291.118 45.1333 292.985 47.6C294.885 50.0333 297.535 51.25 300.935 51.25C302.368 51.25 303.551 51.1333 304.485 50.9C305.418 50.6667 306.318 50.2667 307.185 49.7V40.25H299.135V36H309.335C309.835 35.4667 310.368 35.2 310.935 35.2C311.535 35.2 312.085 35.4833 312.585 36.05C313.118 36.6167 313.451 37.2 313.585 37.8C313.651 38.0333 313.651 38.2167 313.585 38.35C313.518 38.4833 313.385 38.65 313.185 38.85C312.918 39.0833 312.701 39.3667 312.535 39.7C312.368 40 312.285 40.4667 312.285 41.1V52.05C310.251 53.3167 308.385 54.2167 306.685 54.75C304.985 55.25 303.035 55.5 300.835 55.5Z" fill="url(#paint0_linear_1214_2243)"/>
<path d="M83.1564 97.5L71.6564 76H77.1564L85.6064 92.85L94.0564 76H99.5564L88.0564 97.5V111H83.1564V97.5ZM116.715 111.5C111.982 111.5 108.332 109.9 105.765 106.7C103.232 103.467 101.965 99.0667 101.965 93.5C101.965 87.9333 103.232 83.55 105.765 80.35C108.332 77.1167 111.982 75.5 116.715 75.5C119.848 75.5 122.515 76.2333 124.715 77.7C126.948 79.1667 128.632 81.2667 129.765 84C130.898 86.7 131.465 89.8667 131.465 93.5C131.465 97.1333 130.898 100.317 129.765 103.05C128.632 105.75 126.948 107.833 124.715 109.3C122.515 110.767 119.848 111.5 116.715 111.5ZM116.715 107.25C119.915 107.25 122.298 106.017 123.865 103.55C125.465 101.083 126.265 97.7333 126.265 93.5C126.265 89.2667 125.465 85.9167 123.865 83.45C122.298 80.9833 119.915 79.75 116.715 79.75C113.515 79.75 111.115 80.9833 109.515 83.45C107.948 85.8833 107.165 89.2333 107.165 93.5C107.165 97.7667 107.948 101.133 109.515 103.6C111.115 106.033 113.515 107.25 116.715 107.25ZM150.908 111.5C146.708 111.5 143.424 110.367 141.058 108.1C138.691 105.8 137.508 102.6 137.508 98.5V76H142.608V98.8C142.608 101.567 143.341 103.667 144.808 105.1C146.274 106.533 148.308 107.25 150.908 107.25C153.508 107.25 155.541 106.533 157.008 105.1C158.474 103.667 159.208 101.567 159.208 98.8V76H164.308V98.5C164.308 102.6 163.124 105.8 160.758 108.1C158.391 110.367 155.108 111.5 150.908 111.5ZM180.045 80.4H170.045V76H195.145V80.4H185.145V111H180.045V80.4ZM201.158 76H206.258V90.4H221.508V76H226.608V111H221.508V94.8H206.258V111H201.158V76Z" fill="url(#paint1_linear_1214_2243)"/>
<defs>
<linearGradient id="paint0_linear_1214_2243" x1="157.639" y1="16.7639" x2="158.996" y2="71.0165" gradientUnits="userSpaceOnUse">
<stop stop-color="#029419"/>
<stop offset="1" stop-color="#E5C103"/>
</linearGradient>
<linearGradient id="paint1_linear_1214_2243" x1="149.556" y1="56" x2="149.556" y2="127.219" gradientUnits="userSpaceOnUse">
<stop stop-color="#029419"/>
<stop offset="1" stop-color="#E5C103"/>
</linearGradient>
</defs>
</svg>
