<svg width="1101" height="905" viewBox="0 0 1101 905" fill="none" xmlns="http://www.w3.org/2000/svg">
<path d="M721.275 64.8418C772.342 23.0424 836.29 0.183196 902.283 0.137575L1101 0.000196611V904.105L399.684 904.734C264.025 904.855 157.763 788.089 170.634 653.043L182.432 527.034C186.975 478.509 200.348 431.222 221.892 387.504L231.402 368.206C280.394 268.792 368.436 194.16 474.531 162.111L622.798 117.324C658.75 106.463 692.212 88.6301 721.275 64.8418Z" fill="url(#paint0_linear_488_5137)"/>
<path d="M366.497 318.241C463.238 304.567 536.659 403.529 495.521 492.149L303.973 904.787L115.279 905H47.4391L22.3748 839.633C15.2807 821.132 10.7634 801.744 8.94987 782.012C3.47111 722.404 22.9495 663.191 62.7463 618.476L89.5301 588.382C112.089 563.036 129.555 533.582 140.975 501.629C165.996 431.622 219.348 375.392 287.945 346.731L336.235 326.554C345.927 322.505 356.097 319.711 366.497 318.241Z" fill="url(#paint1_linear_488_5137)"/>
<defs>
<linearGradient id="paint0_linear_488_5137" x1="618.898" y1="6.51967" x2="618.898" y2="881.983" gradientUnits="userSpaceOnUse">
<stop stop-color="#FFE34E" stop-opacity="0.71"/>
<stop offset="1" stop-color="#00B012" stop-opacity="0.67"/>
</linearGradient>
<linearGradient id="paint1_linear_488_5137" x1="50.7831" y1="526.726" x2="50.7831" y2="1207.66" gradientUnits="userSpaceOnUse">
<stop stop-color="#FFE34E" stop-opacity="0.71"/>
<stop offset="1" stop-color="#00B012" stop-opacity="0.67"/>
</linearGradient>
</defs>
</svg>
