<svg width="431" height="624" viewBox="0 0 431 624" fill="none" xmlns="http://www.w3.org/2000/svg">
<path d="M255.206 79.2362C322.442 73.4119 381.842 53.0965 427.606 3.49595L430.061 0.834961L430.038 186.483L357.949 204.629C283.604 223.343 224.102 278.962 200.42 351.876C196.123 365.107 190.596 377.906 183.912 390.106L151.039 450.109C119.667 507.372 64.2439 547.526 0.0566406 559.497L0.0302734 285.76C31.9356 252.669 48.2824 207.576 71.521 167.916C93.779 129.93 132.115 97.9289 186.502 87.0351C197.321 84.8681 208.359 83.2943 219.518 82.3276L255.206 79.2362Z" fill="url(#paint0_linear_1220_1209)"/>
<path d="M430.046 81.5156V238.759C347.336 235.62 270.593 281.673 234.449 356.133L173.847 480.979C168.165 492.685 161.614 503.949 154.25 514.677L132.501 546.359C102.123 590.613 53.5237 618.937 0.0458984 623.556L0.0458984 520.232L23.2449 506.462C57.6447 486.045 82.9939 453.028 93.9857 414.565C101.853 387.034 117.222 362.062 138.311 342.695C161.939 320.995 178.269 292.511 185.055 261.157L186.768 253.243C201.338 185.933 258.107 135.998 326.725 130.133L351.164 128.045C383.157 125.31 412.176 108.193 430.046 81.5156Z" fill="url(#paint1_linear_1220_1209)"/>
<defs>
<linearGradient id="paint0_linear_1220_1209" x1="212.83" y1="93.2261" x2="212.83" y2="547.573" gradientUnits="userSpaceOnUse">
<stop stop-color="#FFE34E" stop-opacity="0.71"/>
<stop offset="1" stop-color="#00B012" stop-opacity="0.67"/>
</linearGradient>
<linearGradient id="paint1_linear_1220_1209" x1="186.982" y1="239.775" x2="186.982" y2="659.673" gradientUnits="userSpaceOnUse">
<stop stop-color="#FFE34E" stop-opacity="0.71"/>
<stop offset="1" stop-color="#00B012" stop-opacity="0.67"/>
</linearGradient>
</defs>
</svg>
