<svg width="60" height="61" viewBox="0 0 60 61" fill="none" xmlns="http://www.w3.org/2000/svg">
<path fill-rule="evenodd" clip-rule="evenodd" d="M30.0001 58.2512C45.3316 58.2512 57.5932 46.0762 57.5932 30.6465C57.5932 15.2167 45.3316 3.30277 30.0001 3.30277C14.6687 3.30277 2.50865 15.2167 2.50865 30.6465C2.50865 46.0762 14.6687 58.2512 30.0001 58.2512ZM30.0001 60.6465C46.5686 60.6465 60.0001 47.215 60.0001 30.6465C60.0001 14.0779 46.5686 0.646484 30.0001 0.646484C13.4316 0.646484 0.00012207 14.0779 0.00012207 30.6465C0.00012207 47.215 13.4316 60.6465 30.0001 60.6465Z" fill="url(#paint0_linear_1889_1598)"/>
<path d="M55.9804 30.2099C56.326 29.7874 55.9673 29.1814 55.4036 29.2356L47.5437 29.9899L39.8095 29.99C39.7327 29.99 39.6585 30.0157 39.6 30.0625L39.5293 30.1191C38.4714 30.9653 37.1521 31.4689 35.7668 31.5551L34.5513 31.6307C34.5325 31.6319 34.5151 31.6408 34.5038 31.655L30.2228 37.0392C30.1909 37.0793 30.2213 37.1363 30.2745 37.1363L47.9341 37.1361C48.1176 37.1361 48.2973 37.0871 48.4524 36.9949L52.3039 34.7043L55.9804 30.2099Z" fill="url(#paint1_linear_1889_1598)"/>
<path fill-rule="evenodd" clip-rule="evenodd" d="M47.5569 30.2387L55.4302 29.483C55.7631 29.4511 55.9749 29.8089 55.7708 30.0584L52.1229 34.5177L48.3111 36.7847C48.1984 36.8517 48.0677 36.8873 47.9344 36.8873L30.6736 36.8875L34.6604 31.8733L35.7841 31.8033C37.226 31.7136 38.5993 31.1894 39.7005 30.3085L39.7713 30.2519C39.7819 30.2435 39.7953 30.2388 39.8092 30.2388L47.5569 30.2387ZM30.2228 37.0392C30.1909 37.0793 30.2213 37.1363 30.2745 37.1363L47.9341 37.1361C48.1176 37.1361 48.2973 37.0871 48.4524 36.9949L52.3039 34.7043L55.9804 30.2099C56.326 29.7874 55.9673 29.1814 55.4036 29.2356L47.5437 29.9899L39.8095 29.99C39.7327 29.99 39.6585 30.0157 39.6 30.0625L39.5293 30.1191C38.4714 30.9653 37.1521 31.4689 35.7668 31.5551L34.5513 31.6307C34.5325 31.6319 34.5151 31.6408 34.5038 31.655L30.2228 37.0392Z" fill="#659277"/>
<path d="M4.85352 29.3576C4.46001 28.9406 4.81113 28.292 5.39742 28.3529L17.1962 29.5783L25.7595 29.4667C25.834 29.4657 25.9068 29.489 25.9657 29.5327L26.5809 29.9888C27.758 30.8615 29.2147 31.3276 30.7041 31.3082L31.3295 31.3C31.3835 31.2993 31.4152 31.3576 31.3827 31.3979L28.7458 34.6703L26.7583 37.1113C26.7462 37.1261 26.7275 37.1347 26.7076 37.1347L16.0575 37.1347C15.9456 37.1347 15.8343 37.1165 15.7285 37.0808L12.0377 35.834C11.0051 35.4853 10.0804 34.8964 9.35035 34.1228L4.85352 29.3576Z" fill="url(#paint2_linear_1889_1598)"/>
<path fill-rule="evenodd" clip-rule="evenodd" d="M17.1962 29.5783L5.39742 28.3529C4.81113 28.292 4.46001 28.9406 4.85352 29.3576L9.35035 34.1228C10.0804 34.8964 11.0051 35.4853 12.0377 35.834L15.7285 37.0808C15.8343 37.1165 15.9456 37.1347 16.0575 37.1347L26.7076 37.1347C26.7275 37.1347 26.7462 37.1261 26.7583 37.1113L28.7458 34.6703L31.3827 31.3979C31.4152 31.3576 31.3835 31.2993 31.3295 31.3L30.7041 31.3082C29.2147 31.3276 27.758 30.8615 26.5809 29.9888L25.9657 29.5327C25.9068 29.489 25.834 29.4657 25.7595 29.4667L17.1962 29.5783ZM30.923 31.5543L30.7108 31.5571C29.1604 31.5773 27.6441 31.092 26.4188 30.1837L25.8036 29.7275C25.7929 29.7196 25.7797 29.7154 25.7663 29.7156L17.1866 29.8274L5.37146 28.6003C5.02528 28.5643 4.81795 28.9473 5.0503 29.1935L9.54713 33.9587C10.2473 34.7007 11.1341 35.2654 12.1244 35.5999L15.8153 36.8466C15.8921 36.8726 15.973 36.8858 16.0544 36.8858L26.6068 36.8858L28.5345 34.5184L30.923 31.5543Z" fill="#659277"/>
<path fill-rule="evenodd" clip-rule="evenodd" d="M24.6372 42.709L41.4796 21.4555L40.7724 20.8372L23.93 42.0908L24.6372 42.709Z" fill="#326E4A"/>
<g filter="url(#filter0_i_1889_1598)">
<path d="M24.8115 44.9952C24.8383 44.948 24.8524 44.8941 24.8524 44.8387L24.8524 42.8057C24.8524 42.693 24.7942 42.5868 24.6995 42.5269L24.0241 42.0993C23.9579 42.0574 23.8797 42.0419 23.8047 42.0558L21.84 42.4201C21.7808 42.4311 21.7266 42.4599 21.6842 42.5028L17.6804 46.562C16.6931 47.5629 16.9192 49.284 18.1386 50.0507L18.6089 50.3464L19.4024 50.8511C20.1053 51.2982 21.0074 51.1161 21.4612 50.4356L23.1876 47.847L24.8115 44.9952Z" fill="#CEBA50"/>
</g>
<g filter="url(#filter1_i_1889_1598)">
<path fill-rule="evenodd" clip-rule="evenodd" d="M18.7353 50.126L18.2651 49.8303C17.1884 49.1533 16.9888 47.6336 17.8605 46.7499L21.8643 42.6907C21.872 42.6829 21.8818 42.6777 21.8925 42.6757L23.8573 42.3114C23.8708 42.3089 23.885 42.3117 23.897 42.3193L24.5723 42.7468C24.5895 42.7577 24.6 42.7769 24.6 42.7973L24.6 44.8303C24.6 44.8403 24.5975 44.85 24.5926 44.8586L22.9731 47.7027L21.2516 50.284C20.8721 50.853 20.1178 51.0053 19.5301 50.6315L18.7353 50.126ZM23.1876 47.847L24.8115 44.9952C24.8383 44.948 24.8524 44.8941 24.8524 44.8387L24.8524 42.8057C24.8524 42.693 24.7942 42.5868 24.6995 42.5269L24.0241 42.0993C23.9579 42.0574 23.8797 42.0419 23.8047 42.0558L21.84 42.4201C21.7808 42.4311 21.7266 42.4599 21.6842 42.5028L17.6804 46.562C16.6931 47.5629 16.9192 49.284 18.1386 50.0507L18.6089 50.3464L19.4024 50.8511C20.1053 51.2982 21.0074 51.1161 21.4612 50.4356L23.1876 47.847Z" fill="#CCBE77"/>
</g>
<g filter="url(#filter2_i_1889_1598)">
<path d="M42.5744 22.6777C42.5294 22.7244 42.4715 22.7549 42.4088 22.7651L40.4387 23.085C40.3406 23.101 40.2409 23.0655 40.1716 22.9899L39.6022 22.3698C39.566 22.3303 39.5399 22.2819 39.5263 22.2291L39.2413 21.1166C39.2196 21.0317 39.2318 20.9414 39.2751 20.8669L42.1886 15.8566C42.8702 14.6844 44.3924 14.4419 45.3906 15.3465L45.671 15.6005L46.3961 16.2427C47.0852 16.853 47.1315 17.9499 46.496 18.6092L42.5744 22.6777Z" fill="#CEBA50"/>
</g>
<g filter="url(#filter3_i_1889_1598)">
<path fill-rule="evenodd" clip-rule="evenodd" d="M45.5093 15.7986L45.2289 15.5445C44.3475 14.7459 43.0034 14.96 42.4016 15.995L39.4881 21.0053C39.4803 21.0188 39.4781 21.0351 39.482 21.0505L39.767 22.163C39.7695 22.1725 39.7742 22.1813 39.7807 22.1884L40.3501 22.8086C40.3627 22.8222 40.3807 22.8287 40.3984 22.8258L42.3686 22.5058C42.3799 22.504 42.3904 22.4985 42.3985 22.49L46.3201 18.4216C46.8515 17.8703 46.8128 16.9531 46.2366 16.4428L45.5093 15.7986ZM45.671 15.6005L45.3906 15.3465C44.3924 14.4419 42.8702 14.6844 42.1886 15.8566L39.2751 20.8669C39.2318 20.9414 39.2196 21.0317 39.2413 21.1166L39.5263 22.2291C39.5399 22.2819 39.566 22.3303 39.6022 22.3698L40.1716 22.9899C40.2409 23.0655 40.3406 23.101 40.4387 23.085L42.4088 22.7651C42.4715 22.7549 42.5294 22.7244 42.5744 22.6777L46.496 18.6092C47.1315 17.9499 47.0852 16.853 46.3961 16.2427L45.671 15.6005Z" fill="#CCBE77"/>
</g>
<defs>
<filter id="filter0_i_1889_1598" x="17.0623" y="42.0508" width="7.79016" height="10.0449" filterUnits="userSpaceOnUse" color-interpolation-filters="sRGB">
<feFlood flood-opacity="0" result="BackgroundImageFix"/>
<feBlend mode="normal" in="SourceGraphic" in2="BackgroundImageFix" result="shape"/>
<feColorMatrix in="SourceAlpha" type="matrix" values="0 0 0 0 0 0 0 0 0 0 0 0 0 0 0 0 0 0 127 0" result="hardAlpha"/>
<feOffset dy="1"/>
<feGaussianBlur stdDeviation="1.5"/>
<feComposite in2="hardAlpha" operator="arithmetic" k2="-1" k3="1"/>
<feColorMatrix type="matrix" values="0 0 0 0 0.109167 0 0 0 0 0.0917001 0 0 0 0 0 0 0 0 0.25 0"/>
<feBlend mode="normal" in2="shape" result="effect1_innerShadow_1889_1598"/>
</filter>
<filter id="filter1_i_1889_1598" x="17.0623" y="42.0508" width="7.79016" height="10.0449" filterUnits="userSpaceOnUse" color-interpolation-filters="sRGB">
<feFlood flood-opacity="0" result="BackgroundImageFix"/>
<feBlend mode="normal" in="SourceGraphic" in2="BackgroundImageFix" result="shape"/>
<feColorMatrix in="SourceAlpha" type="matrix" values="0 0 0 0 0 0 0 0 0 0 0 0 0 0 0 0 0 0 127 0" result="hardAlpha"/>
<feOffset dy="1"/>
<feGaussianBlur stdDeviation="1.5"/>
<feComposite in2="hardAlpha" operator="arithmetic" k2="-1" k3="1"/>
<feColorMatrix type="matrix" values="0 0 0 0 0.109167 0 0 0 0 0.0917001 0 0 0 0 0 0 0 0 0.25 0"/>
<feBlend mode="normal" in2="shape" result="effect1_innerShadow_1889_1598"/>
</filter>
<filter id="filter2_i_1889_1598" x="39.2308" y="14.7969" width="7.7135" height="9.29199" filterUnits="userSpaceOnUse" color-interpolation-filters="sRGB">
<feFlood flood-opacity="0" result="BackgroundImageFix"/>
<feBlend mode="normal" in="SourceGraphic" in2="BackgroundImageFix" result="shape"/>
<feColorMatrix in="SourceAlpha" type="matrix" values="0 0 0 0 0 0 0 0 0 0 0 0 0 0 0 0 0 0 127 0" result="hardAlpha"/>
<feOffset dy="1"/>
<feGaussianBlur stdDeviation="1.5"/>
<feComposite in2="hardAlpha" operator="arithmetic" k2="-1" k3="1"/>
<feColorMatrix type="matrix" values="0 0 0 0 0.459167 0 0 0 0 0.387965 0 0 0 0 0.0141577 0 0 0 0.66 0"/>
<feBlend mode="normal" in2="shape" result="effect1_innerShadow_1889_1598"/>
</filter>
<filter id="filter3_i_1889_1598" x="39.2308" y="14.7969" width="7.7135" height="9.29199" filterUnits="userSpaceOnUse" color-interpolation-filters="sRGB">
<feFlood flood-opacity="0" result="BackgroundImageFix"/>
<feBlend mode="normal" in="SourceGraphic" in2="BackgroundImageFix" result="shape"/>
<feColorMatrix in="SourceAlpha" type="matrix" values="0 0 0 0 0 0 0 0 0 0 0 0 0 0 0 0 0 0 127 0" result="hardAlpha"/>
<feOffset dy="1"/>
<feGaussianBlur stdDeviation="1.5"/>
<feComposite in2="hardAlpha" operator="arithmetic" k2="-1" k3="1"/>
<feColorMatrix type="matrix" values="0 0 0 0 0.459167 0 0 0 0 0.387965 0 0 0 0 0.0141577 0 0 0 0.66 0"/>
<feBlend mode="normal" in2="shape" result="effect1_innerShadow_1889_1598"/>
</filter>
<linearGradient id="paint0_linear_1889_1598" x1="30.0001" y1="0.64591" x2="30.0001" y2="60.6459" gradientUnits="userSpaceOnUse">
<stop offset="0.216667" stop-color="#52B278"/>
<stop offset="0.888542" stop-color="#61AD00"/>
</linearGradient>
<linearGradient id="paint1_linear_1889_1598" x1="43.0992" y1="29.4165" x2="43.2153" y2="37.2066" gradientUnits="userSpaceOnUse">
<stop offset="0.1125" stop-color="#006729"/>
<stop offset="1" stop-color="#2BFF80"/>
</linearGradient>
<linearGradient id="paint2_linear_1889_1598" x1="18.0845" y1="28.8694" x2="17.7442" y2="37.2045" gradientUnits="userSpaceOnUse">
<stop offset="0.0447915" stop-color="#006026"/>
<stop offset="1" stop-color="#2BFF80"/>
</linearGradient>
</defs>
</svg>
