<svg width="41" height="41" viewBox="0 0 41 41" fill="none" xmlns="http://www.w3.org/2000/svg">
<path fill-rule="evenodd" clip-rule="evenodd" d="M11.2795 18.4324L19.6453 10.0666C20.1587 9.55323 20.991 9.55323 21.5044 10.0666L29.8701 18.4324C30.3835 18.9457 30.3835 19.7781 29.8701 20.2914C29.3568 20.8048 28.5245 20.8048 28.0111 20.2914L21.8894 14.1697L21.8894 30.7489C21.8894 31.4749 21.3009 32.0635 20.5749 32.0635C19.8489 32.0635 19.2603 31.4749 19.2603 30.7489L19.2603 14.1697L13.1386 20.2914C12.6252 20.8048 11.7929 20.8048 11.2795 20.2914C10.7662 19.7781 10.7662 18.9457 11.2795 18.4324Z" fill="#29B406"/>
<path fill-rule="evenodd" clip-rule="evenodd" d="M20.5747 38.7688C30.4588 38.7688 38.4714 30.7562 38.4714 20.8721C38.4714 10.988 30.4588 2.97536 20.5747 2.97536C10.6906 2.97536 2.67799 10.988 2.67799 20.8721C2.67799 30.7562 10.6906 38.7688 20.5747 38.7688ZM20.5747 40.8721C31.6204 40.8721 40.5747 31.9178 40.5747 20.8721C40.5747 9.82638 31.6204 0.87207 20.5747 0.87207C9.52901 0.87207 0.574707 9.82638 0.574707 20.8721C0.574707 31.9178 9.52901 40.8721 20.5747 40.8721Z" fill="#29B406"/>
</svg>
